Coordinates
version=1
nRows=9
nColumns=24
inDegrees=yes

Units are S.I. units (second, meters, Newtons, ...)
Angles are in degrees.

endheader
time	pelvis_tilt	pelvis_list	pelvis_rotation	pelvis_tx	pelvis_ty	pelvis_tz	hip_flexion_r	hip_adduction_r	hip_rotation_r	knee_angle_r	ankle_angle_r	subtalar_angle_r	mtp_angle_r	hip_flexion_l	hip_adduction_l	hip_rotation_l	knee_angle_l	ankle_angle_l	subtalar_angle_l	mtp_angle_l	lumbar_extension	lumbar_bending	lumbar_rotation
      0.96166667	     -1.61764723	      0.55488314	      2.10219010	     -0.36705914	      1.00465319	      0.36611149	     11.58758983	      1.78527099	     -0.00158952	    -20.03008950	     13.03549615	    -10.57076544	     -2.98536298	     17.10458608	     -0.39107103	     -0.12606529	    -67.95584164	     -1.87329306	    -12.17730248	      2.56009616	    -11.34851218	      7.62404058	     -1.41831600
      0.96583333	     -1.60692894	      0.68904163	      1.97728036	     -0.36255812	      1.00550893	      0.36661945	     11.08284041	      1.67327992	     -0.00704961	    -19.58113623	     13.07759382	    -10.38528029	     -2.97257578	     17.58654065	     -0.28162657	     -0.27616134	    -67.51177392	     -1.20944893	    -11.89140470	      2.53719120	    -11.41194855	      7.42317781	     -1.19145210
      0.97000000	     -1.59680402	      0.83760969	      1.85451549	     -0.35809807	      1.00633849	      0.36709688	     10.58801985	      1.53957589	     -0.02113339	    -19.14294026	     13.06455035	    -10.19397995	     -2.96213496	     18.06030359	     -0.14564224	     -0.40725192	    -67.02154649	     -0.57566792	    -11.63711217	      2.52757742	    -11.49378954	      7.20383439	     -1.03614275
      0.97416667	     -1.58155930	      0.96005450	      1.74078785	     -0.35361333	      1.00711035	      0.36757849	     10.07974434	      1.43475098	     -0.03757932	    -18.69370922	     13.14559627	     -9.98588780	     -2.94372834	     18.52460802	     -0.05006366	     -0.53488926	    -66.50540898	      0.03138145	    -11.29277120	      2.51124822	    -11.56759478	      7.01572685	     -0.81083313
      0.97833333	     -1.55867801	      1.09210296	      1.62169455	     -0.34913672	      1.00786532	      0.36802869	      9.57096947	      1.31315505	     -0.06997813	    -18.25471061	     13.18253399	     -9.77501876	     -2.92323228	     18.96637544	      0.06002694	     -0.66111962	    -65.94080331	      0.61045952	    -10.97773552	      2.49451124	    -11.64809311	      6.82127634	     -0.61539376
      0.98250000	     -1.53584549	      1.20799748	      1.50680035	     -0.34466087	      1.00857130	      0.36846648	      9.06107228	      1.20709261	     -0.10734203	    -17.81060964	     13.21527089	     -9.56779275	     -2.89982271	     19.40165406	      0.15233342	     -0.77340057	    -65.34525178	      1.15798738	    -10.65541184	      2.47916007	    -11.72641262	      6.64670526	     -0.43129880
      0.98666667	     -1.51244509	      1.32551911	      1.39389733	     -0.34018848	      1.00923038	      0.36889164	      8.55580379	      1.09640687	     -0.15616421	    -17.37603371	     13.25713137	     -9.34663694	     -2.87088788	     19.82713098	      0.24548160	     -0.88375959	    -64.71379725	      1.66622822	    -10.34465908	      2.46188480	    -11.80524805	      6.45933744	     -0.25298828
      0.99083333	     -1.50412950	      1.44427253	      1.27960243	     -0.33572233	      1.00981122	      0.36929726	      8.07539871	      0.98041514	     -0.20726245	    -16.95950396	     13.31007800	     -9.11530655	     -2.83825292	     20.25935721	      0.34404472	     -0.98319433	    -64.04769808	      2.13622627	    -10.03652522	      2.44579665	    -11.86515708	      6.28125442	     -0.08393436
      0.99500000	     -1.48752410	      1.53836659	      1.17199055	     -0.33124804	      1.01037098	      0.36968385	      7.57944290	      0.89002175	     -0.26265506	    -16.52661350	     13.34663042	     -8.89500076	     -2.80328902	     20.67411644	      0.41762334	     -1.06468879	    -63.35140180	      2.57273674	     -9.73270123	      2.43131556	    -11.93231817	      6.13459198	      0.08240421
